PathFileType	4	(X/Y/Z)	Patient4_TMGait_0pt6_02_right_15.trc.trc
DataRate	CameraRate	NumFrames	NumMarkers	Units	OrigDataRate	OrigDataStartFrame	OrigNumFrames
80.924855491329	80.924855491329	5	33	mm	80.924855491329	18	       141
Frame#	Time	Sacral			L.Shoulder			Chest			R.Shoulder			Neck			R.ASIS			L.ASIS			R.Thigh.Superior			R.Thigh.Lateral			R.Thigh.Inferior			R.Patella			L.Thigh.Superior			L.Thigh.Lateral			L.Thigh.Inferior			L.Patella			L.Shank.Superior			L.Shank.Lateral			L.Shank.Inferior			R.Shank.Superior			R.Shank.Lateral			R.Shank.Inferior			R.Heel			R.Midfoot.Superior			R.Midfoot.Lateral			R.Toe			L.Heel			L.Midfoot.Lateral			L.Midfoot.Superior			L.Toe			L.Elbow			L.Wrist			R.Elbow			R.Wrist			
		X1	Y1	Z1	X2	Y2	Z2	X3	Y3	Z3	X4	Y4	Z4	X5	Y5	Z5	X6	Y6	Z6	X7	Y7	Z7	X8	Y8	Z8	X9	Y9	Z9	X10	Y10	Z10	X11	Y11	Z11	X12	Y12	Z12	X13	Y13	Z13	X14	Y14	Z14	X15	Y15	Z15	X16	Y16	Z16	X17	Y17	Z17	X18	Y18	Z18	X19	Y19	Z19	X20	Y20	Z20	X21	Y21	Z21	X22	Y22	Z22	X23	Y23	Z23	X24	Y24	Z24	X25	Y25	Z25	X26	Y26	Z26	X27	Y27	Z27	X28	Y28	Z28	X29	Y29	Z29	X30	Y30	Z30	X31	Y31	Z31	X32	Y32	Z32	X33	Y33	Z33	

18	18.040071428571	753.633579640747	1003.637938752353	447.918508878927	953.549489223074	1434.869259092850	285.340058418814	1040.763946749021	1358.415976094407	451.677253378369	944.576232042958	1433.359653435340	617.858337209322	940.812624311375	1492.173701197381	436.868019716506	973.859667555246	943.621838750223	579.960720600082	977.845906102145	958.839484456553	303.561705567292	1053.063238067103	774.032920588967	553.320653423495	1013.233178181150	652.127060444424	627.206504727834	1102.240443620561	615.988031314338	546.872416804366	1139.552684736606	534.699223318609	565.712679931254	984.231371215925	731.289940744826	339.444245813325	872.654886893690	632.199930478063	276.285352542297	931.763190969591	541.811760476621	345.804399194616	917.013915858871	474.918371533331	357.391086214425	885.140500280000	407.741799327723	349.697682123890	785.424900739699	302.088305845287	300.328662617266	820.220378289222	188.573711476367	376.121721712414	1125.668625812660	446.901355929752	576.326691793456	1077.116478673008	331.249382834370	640.032954948103	1149.915528194541	247.898657832850	588.555300084842	1064.741980644658	57.424575418179	559.142167385704	1225.526251491398	136.289817179777	601.425202159556	1149.714869205356	56.066883616209	632.467157274747	1351.296771514729	101.876611059505	625.204916689775	679.851214327513	39.366369997953	420.966070462470	752.309354943782	35.652976092894	339.485172543685	836.901847574202	95.171945398355	365.335824307530	964.228330066076	40.471246992750	334.147526113288	993.697605860066	1100.115228747060	136.779061136418	1235.423246487418	1016.762873587677	170.759378024988	783.752151562994	1125.891978945353	718.199936693573	738.296813145565	868.369671791578	717.155129673205	
19	18.052428571429	755.207894641421	1001.557937746911	449.704743396307	952.815529792376	1433.282881042343	286.612324775773	1040.459292811211	1357.506955269003	452.976183178235	944.141385840566	1432.364689855548	619.023147541447	939.921553389008	1490.730423018661	438.027066229071	975.660963027315	941.594366323826	581.329088655179	979.235512934306	957.703489594857	305.029044803937	1052.698439077884	769.450824812138	555.449419367306	1010.297906843149	647.841137282434	628.528513241849	1099.423287854048	610.972885464282	548.663186638881	1135.369654200091	530.517930767319	566.727283690597	983.425233635437	729.563911817392	340.013820769128	870.308419005181	631.740407941368	276.838325479324	928.376347306639	540.606801794025	346.031634890831	912.914729670738	473.771065698145	357.501346494946	880.466680123478	406.945961533083	349.813541403400	779.700578951160	302.200888061280	300.374997497362	813.635977606230	188.277502764912	376.006098095001	1122.813891658497	443.019791253943	576.938572548357	1075.236059766525	326.304080652012	639.208133319982	1150.021221972558	244.382413431063	587.989894492738	1068.006143361975	53.289456547998	556.438618492066	1227.565611316545	133.377123911010	600.524963603181	1152.245079231069	52.556501444270	630.527965253970	1353.433178533591	100.042004377118	625.205266555276	672.381120722117	39.532398882118	420.836068112715	744.872141339728	35.672195351112	339.437784284435	829.506550410582	95.136223340247	365.251434312576	956.743363279430	40.331634353031	334.152025629264	997.847867255993	1099.551860673154	138.277664411678	1242.181169158567	1025.157881098077	172.300857383009	779.106044368626	1127.799802956610	718.328170344518	730.505012972307	870.754831998422	717.423457826876	
20	18.064785714286	756.922022940186	999.394644830893	451.667105331293	951.975517709046	1431.589478090983	287.961732213818	1040.151971156669	1356.590979039083	454.344476190092	943.683804283549	1431.274807310063	620.298391348245	938.895705547766	1489.203817739820	439.278819597765	977.627773146079	939.457255658327	582.845095398601	980.805286550280	956.463535568961	306.668206324465	1052.879729258247	765.092992187508	557.693066567379	1007.819675306191	643.610723362308	629.590273442799	1097.294123804285	606.273906330848	550.393945593851	1131.709126125440	526.202394716607	567.522623400347	982.935729573307	727.798587566891	340.713304181055	868.339178867246	631.212962596267	277.559234839875	925.453805349990	539.333235507080	346.399205111533	909.300103397843	472.472833725478	357.750583053484	876.163864373816	406.026131382471	350.045535592469	774.218411380835	302.336959418688	300.497188697899	807.165388207165	187.955097464777	375.909811570319	1119.827090395010	438.794544677530	577.200865759806	1072.201930417417	321.502858618034	637.986029183035	1148.099417489025	240.424555345267	587.020975448183	1067.361259343870	49.970518889860	553.519065077537	1226.413290953483	129.436634001810	599.015223941864	1150.838227648970	49.149400460356	628.345093111275	1351.993100220062	95.938856980526	624.648049168984	664.901667867881	39.743635172961	420.663095233424	737.448075495135	35.700191641137	339.365340929913	822.130098296458	95.120208573840	365.143122967092	949.280727169138	40.187202714798	334.137680955507	1001.597424626894	1098.800083512040	139.968750435976	1248.148844710045	1033.002301014102	173.829138627473	775.684097754855	1128.952541509549	718.738272260103	724.571263446213	872.266980980710	717.841933445195	
21	18.077142857143	758.730695286515	997.218583469851	453.784938030275	951.095395570872	1429.830037038040	289.397962486649	1039.879468733353	1355.679815958376	455.795486888732	943.237321975862	1430.109895442346	621.699518552560	937.805304850783	1487.637664262677	440.633689273191	979.717989068237	937.281072741957	584.509874895695	982.484499571915	955.131620528994	308.472848172493	1053.623576225765	761.064039441036	559.995854872030	1005.852868303544	639.561248238775	630.360458052443	1095.864474745157	602.017056518227	551.973542043600	1128.640617012228	521.913777573477	567.994830960268	982.763954492408	726.029373922182	341.547789484672	866.771100348041	630.622858347526	278.463839550104	923.047110488400	538.002879891407	346.921898163348	906.237664373886	471.018050981050	358.149749226940	872.280003160242	404.981872492461	350.410468025906	769.019868342234	302.514064478742	300.714048880301	800.828146341347	187.620032544101	375.841370288994	1116.871039689772	434.387776198482	577.089927966315	1068.387108545062	316.942884242503	636.499500891219	1144.558532703941	236.143418959511	585.695506223056	1063.365246297485	47.339714979343	550.620579923577	1222.607426140410	124.715374403596	596.985416460595	1146.147416256898	45.935487407669	626.103641042492	1347.635711745098	90.018363920834	623.543348585708	657.415059269481	40.038243577252	420.445563743520	730.041118039420	35.748624062877	339.267267203837	814.789377230667	95.126777766498	365.005737943674	941.850006050457	40.037951020812	334.099953417255	1004.914675439871	1097.855179425667	141.846074386901	1253.321339467128	1040.182969887632	175.335790390539	773.531458672872	1129.287370197841	719.481706197838	720.543789179569	872.840122718351	718.459952267116	
22	18.089500000000	760.584879515872	995.109248030790	456.033657044340	950.241389020360	1428.065169724691	290.932769499901	1039.679110449284	1354.796539725758	457.341474111829	942.844082024452	1428.906956380915	623.241715813882	936.730559636305	1486.092115995228	442.103262950489	981.884385619960	935.156267843118	586.315985498183	984.195278813520	953.737997913789	310.428078770503	1054.907192863023	757.462513895795	562.290868519467	1004.448712659596	635.838461273545	630.852819141356	1095.106024209693	598.318692453658	553.322074947523	1126.197959111774	517.824256004701	568.087838915725	982.903859069083	724.307292163641	342.519503719355	865.627427973829	629.982284999173	279.563946004507	921.212949871379	536.639727138418	347.611394379892	903.805889919567	469.411737858390	358.698285309080	868.867847857063	403.825358301535	350.917108186038	764.149160542718	302.764133157823	301.043651991320	794.650852913848	187.297267893668	375.805771748113	1114.099316626618	429.999434652862	576.635474117145	1064.191635128174	312.750198985511	634.909266172362	1139.876026503504	231.731936948010	584.099193804648	1056.756459844930	45.300410031624	547.951214786793	1216.785299778005	119.575166179922	594.577721052288	1138.976292909448	43.043585228732	623.974914863669	1341.112679896257	82.917354222672	621.970050023285	649.929023453613	40.475199762119	420.185708494369	722.656265997451	35.839427443433	339.145740803854	807.510151831896	95.160617854819	364.830975028679	934.459861270780	39.883755752999	334.036197550784	1007.766197725584	1096.728826512371	143.906594632287	1257.696986099315	1046.591390319802	176.817699883610	772.666898509037	1128.790963474704	720.588622130017	718.450173573527	872.458910133317	719.329973079182	
